<svg width="220" height="54" viewBox="0 0 220 54" fill="none" xmlns="http://www.w3.org/2000/svg">
<path d="M60.8086 43.1994V41.8838C60.8086 41.4758 61.0228 41.2719 61.4511 41.2719H61.4817C63.5622 41.2719 64.6025 39.9154 64.6025 37.2026V18.3554C64.6025 15.6426 63.5622 14.2861 61.4817 14.2861H61.4511C61.0228 14.2861 60.8086 14.072 60.8086 13.6436V12.3586C60.8086 11.9302 61.0228 11.7161 61.4511 11.7161H74.4544C74.6788 11.7161 74.8624 11.7773 75.0052 11.8996C75.1479 12.022 75.2193 12.175 75.2193 12.3586V13.6436C75.2193 13.8272 75.0868 13.9802 74.8216 14.1026C74.5564 14.2249 74.2913 14.2861 74.0261 14.2861H71.456V36.7436C71.456 39.3749 72.4351 40.7211 74.3932 40.7823H76.0454C76.6574 40.7823 77.1775 40.7619 77.6058 40.7211C78.0546 40.7007 78.5849 40.6293 79.1968 40.507C79.8087 40.3642 80.3799 40.15 80.9102 39.8644C81.4405 39.5789 82.0015 39.2015 82.593 38.7324C83.2049 38.2836 83.8168 37.6921 84.4288 36.9578C85.0407 36.2031 85.6526 35.3362 86.2645 34.3572L86.3869 34.1124C86.5501 33.8676 86.7337 33.7452 86.9376 33.7452C87.06 33.7452 87.1824 33.786 87.3048 33.8676L88.651 34.6631C88.8958 34.8059 89.0182 34.9793 89.0182 35.1832C89.0182 35.326 88.9774 35.4484 88.8958 35.5504L84.8877 44.0561C84.7857 44.3009 84.6123 44.4233 84.3676 44.4233C84.2656 44.4233 84.1432 44.3723 84.0004 44.2703L83.7556 44.0561C83.5721 43.9133 83.2967 43.8419 82.9295 43.8419H61.4511C61.0228 43.8419 60.8086 43.6278 60.8086 43.1994ZM89.2935 43.1688V41.8838C89.2935 41.4554 89.5077 41.2413 89.936 41.2413C90.9559 41.2209 91.7412 40.8435 92.2919 40.1092C92.8019 39.3749 93.0568 38.4468 93.0568 37.325C93.0568 37.2842 93.0568 37.2332 93.0568 37.172V21.1397C93.0568 20.4257 93.0262 19.8444 92.9651 19.3957C92.9243 18.9265 92.8223 18.437 92.6591 17.9271C92.5163 17.4171 92.2613 17.0092 91.8942 16.7032C91.527 16.4177 91.0681 16.2443 90.5174 16.1831C90.1502 16.1423 89.987 15.9587 90.0278 15.6324V14.1943C90.0278 14.0108 90.0686 13.8884 90.1502 13.8272C90.2522 13.766 90.4154 13.6946 90.6398 13.613C93.8013 12.5524 96.4836 11.2265 98.6865 9.63553C98.7681 9.59474 98.8293 9.57434 98.8701 9.57434H98.9619C99.0027 9.57434 99.0435 9.59474 99.0843 9.63553V37.172C99.0843 38.3754 99.3494 39.3545 99.8798 40.1092C100.43 40.8639 101.206 41.2413 102.205 41.2413C102.633 41.2413 102.848 41.4554 102.848 41.8838V43.1688C102.848 43.5972 102.633 43.8113 102.205 43.8113H89.936C89.5077 43.8113 89.2935 43.5972 89.2935 43.1688ZM103.796 33.0721C103.796 31.1548 104.071 29.4618 104.622 27.9932C105.173 26.5246 105.928 25.3517 106.886 24.4746C107.825 23.6179 108.885 22.9652 110.068 22.5165C111.231 22.0677 112.485 21.8434 113.832 21.8434C116.626 21.8434 118.941 22.6797 120.777 24.3522C121.103 24.2095 121.409 24.0769 121.695 23.9545C121.98 23.8117 122.256 23.6689 122.521 23.5261C122.766 23.3834 122.97 23.2712 123.133 23.1896C123.316 23.0876 123.52 22.9652 123.745 22.8224C123.969 22.6797 124.112 22.5879 124.173 22.5471C124.255 22.4859 124.408 22.3737 124.632 22.2105C124.856 22.0473 124.979 21.9555 124.999 21.9352C125.081 21.874 125.142 21.8434 125.183 21.8434H125.305C125.325 21.8434 125.336 21.874 125.336 21.9352V35.887C125.356 36.4785 125.397 36.9782 125.458 37.3862C125.54 37.8145 125.662 38.2327 125.825 38.6406C126.009 39.0485 126.274 39.3749 126.621 39.6197C126.947 39.8644 127.365 40.0174 127.875 40.0786C128.242 40.1194 128.405 40.303 128.365 40.6293V42.098C128.365 42.4651 128.161 42.6487 127.753 42.6487C126.447 42.6487 125.264 42.7405 124.204 42.9241C123.143 43.1076 122.368 43.2912 121.878 43.4748C121.389 43.6584 120.716 43.9337 119.859 44.3009C119.757 44.3621 119.645 44.3927 119.522 44.3927H119.4C119.359 44.3927 119.339 44.3417 119.339 44.2397L119.828 40.4458C119.686 40.8129 119.482 41.1801 119.216 41.5472C118.951 41.9348 118.574 42.3529 118.084 42.8017C117.574 43.2708 116.912 43.6482 116.096 43.9337C115.259 44.2397 114.331 44.3927 113.311 44.3927C112.496 44.3927 111.669 44.2703 110.833 44.0255C109.976 43.7807 109.12 43.3626 108.263 42.7711C107.427 42.1795 106.682 41.4656 106.03 40.6293C105.377 39.7931 104.836 38.7222 104.408 37.4168C104 36.1113 103.796 34.6631 103.796 33.0721ZM109.334 31.6953C109.334 34.4081 109.874 36.5703 110.956 38.1817C112.037 39.7931 113.464 40.5987 115.239 40.5987C115.831 40.5987 116.381 40.4968 116.891 40.2928C117.381 40.1092 117.768 39.8848 118.054 39.6197C118.36 39.3341 118.615 39.0587 118.819 38.7936C119.023 38.508 119.165 38.2633 119.247 38.0593L119.369 37.7839V29.1864C119.267 28.6765 119.125 28.1971 118.941 27.7484C118.758 27.2793 118.482 26.7999 118.115 26.3104C117.768 25.8209 117.299 25.4333 116.708 25.1477C116.096 24.8418 115.392 24.6888 114.596 24.6888C113.801 24.6888 113.087 24.8214 112.455 25.0865C111.822 25.3517 111.323 25.7087 110.956 26.1574C110.568 26.5858 110.252 27.1059 110.007 27.7178C109.742 28.3297 109.558 28.9518 109.456 29.5842C109.375 30.2369 109.334 30.9406 109.334 31.6953ZM127.998 24.291V23.0366C127.998 22.6083 128.212 22.3941 128.64 22.3941H138.553C138.961 22.3941 139.165 22.6083 139.165 23.0366V24.291C139.165 24.7398 138.961 24.9642 138.553 24.9642H138.461C137.503 24.9642 137.023 25.3823 137.023 26.2186C137.023 26.9121 137.309 27.8504 137.88 29.0334L141.827 37.3862L145.437 29.0334C146.131 27.4832 146.478 26.4226 146.478 25.8514C146.478 25.2599 146.161 24.9642 145.529 24.9642H144.703C144.254 24.9642 144.03 24.7398 144.03 24.291V23.0366C144.03 22.6083 144.254 22.3941 144.703 22.3941H152.536C152.964 22.3941 153.178 22.6083 153.178 23.0366V24.291C153.178 24.7398 152.964 24.9642 152.536 24.9642H151.924C151.455 24.9642 151.036 25.1477 150.669 25.5149C150.302 25.882 149.884 26.5858 149.415 27.626L142.194 43.3524C142.051 43.6584 141.807 43.8113 141.46 43.8113H139.196C138.829 43.8113 138.574 43.6584 138.431 43.3524L131.21 27.6566C130.721 26.5756 130.313 25.8514 129.986 25.4843C129.68 25.1375 129.272 24.9642 128.762 24.9642H128.64C128.212 24.9642 127.998 24.7398 127.998 24.291ZM153.484 32.8885C153.484 30.7264 154.055 28.7275 155.197 26.8917C156.34 25.0356 157.91 23.6689 159.909 22.7918C161.276 22.1799 162.714 21.874 164.223 21.874C166.385 21.874 168.405 22.4859 170.281 23.7097C172.158 24.9132 173.565 26.5654 174.504 28.6663C175.177 30.1349 175.513 31.6953 175.513 33.3475C175.513 35.5096 174.932 37.4983 173.769 39.3137C172.627 41.1495 171.067 42.5161 169.088 43.4136C167.681 44.0255 166.222 44.3315 164.713 44.3315C162.571 44.3315 160.562 43.7297 158.685 42.5263C156.809 41.3025 155.412 39.6503 154.494 37.5697C153.821 36.0807 153.484 34.5203 153.484 32.8885ZM158.594 30.1961C158.594 31.7667 158.991 33.4393 159.787 35.2138C160.521 36.8456 161.439 38.2021 162.54 39.2831C163.642 40.3642 164.815 40.9047 166.059 40.9047C166.63 40.9047 167.201 40.7823 167.772 40.5376C169.506 39.7829 170.373 38.2734 170.373 36.0093C170.373 34.4591 169.975 32.7968 169.18 31.0222C168.446 29.37 167.528 28.0034 166.426 26.9223C165.304 25.8412 164.121 25.3007 162.877 25.3007C162.326 25.3007 161.755 25.4333 161.164 25.6985C159.45 26.4328 158.594 27.932 158.594 30.1961ZM177.012 43.1688V41.8838C177.012 41.4554 177.216 41.2413 177.624 41.2413H177.747C178.746 41.2413 179.511 40.8639 180.041 40.1092C180.592 39.3545 180.868 38.3754 180.868 37.172V31.7871C180.868 31.0936 180.837 30.5122 180.776 30.0431C180.735 29.5944 180.633 29.115 180.47 28.6051C180.327 28.0748 180.072 27.6668 179.705 27.3813C179.338 27.0957 178.879 26.9223 178.328 26.8611C177.961 26.8203 177.788 26.6367 177.808 26.3104V24.8418C177.808 24.5358 178.012 24.3522 178.42 24.291C180.256 23.9851 181.949 23.5261 183.499 22.9142C185.049 22.2819 186.191 21.7006 186.926 21.1702C187.028 21.1091 187.089 21.0785 187.109 21.0785H187.201C187.242 21.0785 187.262 21.0989 187.262 21.1397L186.252 26.8917C187.007 25.2803 188.058 24.0361 189.404 23.159C190.75 22.2819 192.208 21.8434 193.779 21.8434C195.187 21.8434 196.349 22.2309 197.267 23.006C198.185 23.7811 198.644 24.8724 198.644 26.2798C198.644 27.0345 198.572 27.626 198.43 28.0544C198.287 28.4827 197.981 28.7989 197.512 29.0028L193.473 30.655C193.351 30.6958 193.228 30.7162 193.106 30.7162C192.841 30.7162 192.708 30.5836 192.708 30.3185C192.708 30.1757 192.739 30.0431 192.8 29.9207C193.065 29.2884 193.198 28.5847 193.198 27.8096C193.198 27.0549 193.014 26.494 192.647 26.1268C192.28 25.7597 191.79 25.5761 191.178 25.5761C190.281 25.5761 189.434 25.9636 188.639 26.7387C187.843 27.5138 187.252 28.3603 186.864 29.2782V37.172C186.864 38.3754 187.14 39.3545 187.69 40.1092C188.241 40.8639 189.016 41.2413 190.016 41.2413H190.108C190.536 41.2413 190.75 41.4554 190.75 41.8838V43.1688C190.75 43.5972 190.536 43.8113 190.108 43.8113H177.624C177.216 43.8113 177.012 43.5972 177.012 43.1688ZM198.889 36.7436C198.889 36.5193 199.001 36.3357 199.225 36.1929L200.541 35.428C200.643 35.3668 200.775 35.3362 200.939 35.3362C201.143 35.3362 201.306 35.4484 201.428 35.6728C203.957 39.5279 207.19 41.4554 211.127 41.4554C213.881 41.4554 215.258 40.6395 215.258 39.0078C215.258 38.763 215.217 38.5386 215.135 38.3346C215.074 38.1103 214.952 37.9063 214.768 37.7227C214.584 37.5391 214.411 37.376 214.248 37.2332C214.064 37.07 213.809 36.917 213.483 36.7742C213.157 36.6111 212.891 36.4887 212.687 36.4071C212.463 36.3051 212.137 36.1827 211.708 36.0399C211.28 35.9176 210.964 35.8156 210.76 35.734C210.536 35.6728 210.189 35.5708 209.72 35.428C209.25 35.3056 208.924 35.2138 208.741 35.1527C207.374 34.7447 206.201 34.3164 205.222 33.8676C204.223 33.3985 203.437 32.9293 202.866 32.4602C202.275 32.0115 201.805 31.5117 201.459 30.961C201.112 30.4103 200.877 29.8901 200.755 29.4006C200.633 28.9111 200.571 28.3603 200.571 27.7484C200.571 26.0146 201.245 24.597 202.591 23.4956C203.937 22.4145 205.722 21.874 207.945 21.874C209.108 21.874 210.209 22.0269 211.249 22.3329C212.269 22.6389 213.055 22.955 213.605 23.2814C213.687 23.3222 213.748 23.3426 213.789 23.3426C213.993 23.3426 214.013 23.0468 213.85 22.4553C213.83 22.3125 213.82 22.2105 213.82 22.1493C213.82 21.8638 214.003 21.721 214.37 21.721H215.472C215.839 21.721 216.084 21.8842 216.206 22.2105L218.348 27.6566C218.429 27.8402 218.47 27.983 218.47 28.085C218.47 28.2685 218.358 28.4215 218.134 28.5439L217.093 29.0946C216.95 29.1558 216.838 29.1864 216.757 29.1864C216.573 29.1864 216.39 29.0742 216.206 28.8499C215.003 27.3609 213.707 26.2594 212.32 25.5455C210.954 24.8316 209.689 24.4746 208.526 24.4746C207.67 24.4746 206.956 24.648 206.385 24.9948C205.814 25.3415 205.528 25.8922 205.528 26.6469C205.528 27.0957 205.661 27.4934 205.926 27.8402C206.17 28.2073 206.548 28.5133 207.058 28.7581C207.568 29.0028 208.057 29.2068 208.526 29.37C208.996 29.5332 209.587 29.7066 210.301 29.8901C212.708 30.502 214.38 31.012 215.319 31.4199C218.113 32.5826 219.653 34.2858 219.939 36.5295C219.98 36.7946 220 37.07 220 37.3556C220 39.3953 219.174 41.0679 217.522 42.3733C215.89 43.6788 213.697 44.3315 210.943 44.3315C209.149 44.3315 207.496 43.9541 205.987 43.1994C205.824 43.1382 205.701 43.1076 205.62 43.1076C205.355 43.1076 205.283 43.3218 205.406 43.7501C205.446 43.8725 205.467 43.9847 205.467 44.0867C205.467 44.3315 205.304 44.4437 204.977 44.4233H203.447C203.101 44.4233 202.846 44.2805 202.683 43.9949L198.98 37.0802C198.919 36.9374 198.889 36.8252 198.889 36.7436Z" fill="#7DE38D"/>
<path d="M26.0825 50.9603C26.0825 33.539 16.5246 11.6023 4.76881 11.6023C4.32142 11.6023 3.88489 11.7401 3.51856 11.9969C3.15223 12.2538 2.87386 12.6172 2.7213 13.0377C-5.31192 35.1465 5.23713 53.1385 23.9043 53.1385C24.482 53.1385 25.0361 52.909 25.4446 52.5005C25.8531 52.092 26.0825 51.538 26.0825 50.9603ZM6.25435 16.1613C13.7038 18.1696 20.9289 34.7196 21.6651 48.6753C8.04919 47.3466 0.558345 33.8331 6.25435 16.1613V16.1613Z" fill="#7DE38D"/>
<path d="M41.5543 16.1613C47.2481 33.8331 39.7594 47.3466 26.1435 48.6753C26.8797 34.7218 34.1026 18.1696 41.5543 16.1613V16.1613ZM21.7261 50.9603C21.7261 51.538 21.9556 52.092 22.3641 52.5005C22.7725 52.909 23.3266 53.1385 23.9043 53.1385C42.5715 53.1385 53.1205 35.1465 45.0873 13.0377C44.9348 12.6172 44.6564 12.2538 44.2901 11.9969C43.9237 11.7401 43.4872 11.6023 43.0398 11.6023C31.284 11.6023 21.7261 33.539 21.7261 50.9603Z" fill="#7DE38D"/>
<path d="M37.2784 17.3593C35.2178 7.60094 30.184 0.861572 23.9042 0.861572C17.6266 0.861572 12.5906 7.60529 10.53 17.3593C10.4574 17.7026 10.4689 18.0583 10.5633 18.3962C10.6577 18.7341 10.8324 19.0442 11.0724 19.3001C14.5619 23.0161 17.6462 29.5355 19.6545 37.0415C21.1096 41.1083 21.7238 45.6956 21.7238 50.9603H26.0802C26.0802 45.6934 26.6967 41.1083 28.1016 37.218C30.1644 29.5355 33.2465 23.0161 36.736 19.3001C36.9761 19.0446 37.1509 18.735 37.2457 18.3975C37.3405 18.06 37.3525 17.7046 37.2806 17.3615L37.2784 17.3593ZM23.9478 35.9176L23.9086 36.0265L23.8084 35.7412C21.8218 28.2917 18.7462 21.5763 15.0302 17.1981C16.8185 9.83142 20.4234 5.21798 23.9042 5.21798C27.3872 5.21798 30.9899 9.83142 32.776 17.1981C29.0644 21.5763 25.9822 28.3069 23.9478 35.9154V35.9176Z" fill="#7DE38D"/>
</svg>
